<?xml version="1.0" encoding="utf-8"?>
<!-- Generator: Adobe Illustrator 16.0.4, SVG Export Plug-In . SVG Version: 6.00 Build 0)  -->
<!DOCTYPE svg PUBLIC "-//W3C//DTD SVG 1.1//EN" "http://www.w3.org/Graphics/SVG/1.1/DTD/svg11.dtd">
<svg version="1.1" id="Layer_1" xmlns="http://www.w3.org/2000/svg" xmlns:xlink="http://www.w3.org/1999/xlink" x="0px" y="0px"
	 width="103.503px" height="63.893px" viewBox="0 0 103.503 63.893" enable-background="new 0 0 103.503 63.893"
	 xml:space="preserve">
<g>
	<path fill="#FFFFFF" d="M11.374,63.781h2.785c2.592,0,4.662-1.756,4.662-4.381s-2.086-4.383-4.662-4.383h-3.51v8.293l1.682-1.572
		v-5.143h1.832c1.477-0.08,2.736,1.053,2.817,2.527c0.005,0.098,0.005,0.193,0,0.291c0.073,1.426-1,2.65-2.423,2.766h-1.475
		L11.374,63.781z M26.438,62.32h-4.471c-0.137,0.008-0.27-0.039-0.371-0.131c-0.092-0.104-0.141-0.238-0.137-0.377v-1.703h3.207
		v-1.461H21.46v-1.654c-0.004-0.137,0.045-0.273,0.137-0.375c0.102-0.092,0.234-0.141,0.371-0.131h4.471v-1.461H21.02
		c-0.347-0.025-0.687,0.094-0.94,0.328c-0.203,0.258-0.305,0.58-0.281,0.906v6.289c-0.023,0.326,0.078,0.65,0.281,0.906
		c0.254,0.234,0.594,0.354,0.94,0.328h5.419v-1.461V62.32z M29.04,54.98h-1.805l2.311,7.645c0.093,0.344,0.291,0.65,0.57,0.873
		c0.334,0.209,0.721,0.32,1.115,0.32h0.832c0.395,0,0.783-0.111,1.118-0.32c0.276-0.223,0.478-0.529,0.567-0.873l2.312-7.645h-1.817
		l-1.879,6.494c-0.068,0.25-0.199,0.48-0.381,0.666c-0.175,0.191-0.472,0.203-0.664,0.027c-0.008-0.008-0.017-0.018-0.025-0.027
		c-0.182-0.186-0.312-0.416-0.381-0.666l-1.877-6.494H29.04z M43.493,62.32h-4.469c-0.137,0.008-0.271-0.039-0.373-0.131
		c-0.092-0.104-0.141-0.238-0.135-0.377c-0.057-0.389,0-1.258,0-1.715h3.207v-1.459h-3.217c0-0.441-0.051-1.273,0-1.652
		c-0.006-0.139,0.043-0.273,0.136-0.377c0.101-0.092,0.235-0.139,0.371-0.131h4.47v-1.461h-5.414
		c-0.345-0.025-0.686,0.094-0.939,0.328c-0.203,0.256-0.303,0.58-0.28,0.906v6.299c-0.024,0.326,0.077,0.65,0.28,0.906
		c0.254,0.234,0.595,0.354,0.939,0.328h5.424v-1.461V62.32z M46.489,55.018h-1.681v7.514c-0.022,0.328,0.077,0.65,0.282,0.906
		c0.254,0.236,0.594,0.355,0.939,0.328h5.071v-1.461h-4.123c-0.136,0.01-0.271-0.039-0.372-0.131
		c-0.092-0.102-0.141-0.238-0.135-0.375v-6.781H46.489z M55.882,63.893c2.482,0.002,4.496-2.008,4.498-4.488
		c0.004-2.482-2.006-4.496-4.488-4.498c-2.482-0.004-4.498,2.006-4.5,4.488v0.033C51.399,61.9,53.41,63.898,55.882,63.893
		 M55.882,56.549c1.555-0.043,2.852,1.182,2.895,2.736c0.045,1.557-1.18,2.852-2.736,2.896c-1.555,0.043-2.852-1.182-2.896-2.736
		v-0.041C53.123,57.863,54.343,56.592,55.882,56.549 M61.357,63.781h1.682v-7.279h1.949c0.98,0,1.779,0.469,1.779,1.535
		s-0.789,1.559-1.742,1.559h-0.258l-1.555,1.451h1.752c1.879,0,3.512-0.98,3.512-3.033c0-1.977-1.445-3.006-3.318-3.006h-3.801
		v8.764V63.781z M69.443,63.781h1.645V57.52l2.113,3.209c0.225,0.33,0.674,0.416,1.004,0.193c0.076-0.053,0.143-0.117,0.195-0.193
		l2.141-3.244v6.297h1.666v-8.764h-1c-0.586,0.004-1.125,0.322-1.408,0.836L73.843,59l-2.004-3.221
		c-0.295-0.506-0.854-0.803-1.438-0.762h-0.939v8.764H69.443z M86.171,62.32H81.71c-0.258,0.021-0.486-0.17-0.508-0.43
		c-0.002-0.025-0.002-0.051,0-0.078v-1.703h3.207v-1.461h-3.217v-1.654c-0.021-0.258,0.172-0.484,0.43-0.506
		c0.025-0.002,0.053-0.002,0.078,0h4.471v-1.461h-5.4c-0.59-0.086-1.139,0.32-1.227,0.91c-0.016,0.105-0.016,0.215,0,0.32v6.293
		c-0.088,0.588,0.316,1.141,0.906,1.229c0.105,0.016,0.215,0.018,0.32,0.002h5.4V62.32z M88.349,55.018h-0.857v8.764h1.652v-6.186
		l3.756,5.49c0.281,0.422,0.75,0.682,1.26,0.695h0.854v-8.764h-1.652v6.186l-3.695-5.393c-0.246-0.488-0.748-0.797-1.297-0.793
		H88.349z M103.503,56.568v-1.551h-7.541v1.551h2.906v7.213h1.732v-7.213H103.503z"/>
	<path fill="#666666" d="M0,55.018v5.32c0,1.41,0.291,2.283,0.901,2.818c0.611,0.535,1.568,0.709,2.855,0.709
		c1.286,0,2.249-0.188,2.869-0.719s0.911-1.408,0.911-2.818v-5.311H5.879v5.475c0,0.836-0.249,1.293-0.647,1.541
		c-0.451,0.223-0.955,0.316-1.455,0.273c-0.504,0.043-1.008-0.059-1.457-0.287c-0.398-0.254-0.643-0.709-0.643-1.527v-5.475H0z"/>
	<path fill="#666666" d="M39.587,12.369c-6.702,6.723-6.686,17.604,0.035,24.307c2.324,2.316,5.263,3.922,8.469,4.621V29.801
		l7.321-6.869V48.73c-13.379,2.023-25.868-7.184-27.891-20.564c-1.248-8.26,1.795-16.584,8.074-22.09L39.587,12.369z"/>
	<path fill="#FFFFFF" d="M51.755,0c13.534-0.01,24.516,10.953,24.526,24.49c0.008,10.725-6.957,20.207-17.191,23.408v-7.852
		c8.584-4.059,12.252-14.309,8.191-22.891c-2.279-4.818-6.662-8.307-11.869-9.445v11.34l-7.326,6.865V0.271
		C49.3,0.092,50.522,0,51.749,0H51.755z"/>
</g>
</svg>
